<?xml version="1.0" standalone="no"?>
<!DOCTYPE svg PUBLIC "-//W3C//DTD SVG 20010904//EN"
 "http://www.w3.org/TR/2001/REC-SVG-20010904/DTD/svg10.dtd">
<svg version="1.0" xmlns="http://www.w3.org/2000/svg"
 width="500.000000pt" height="500.000000pt" viewBox="0 0 500.000000 500.000000"
 preserveAspectRatio="xMidYMid meet">

<g transform="translate(0.000000,500.000000) scale(0.100000,-0.100000)"
fill="#000000" stroke="none">
<path d="M1783 3524 c-8 -22 12 -177 44 -336 l25 -128 -36 -82 c-42 -99 -73
-209 -83 -298 -9 -71 -49 -155 -176 -363 -122 -202 -167 -311 -167 -405 0 -71
33 -143 89 -195 l39 -36 -14 -48 c-16 -56 -33 -181 -26 -188 7 -7 142 -6 142
1 0 3 -8 18 -19 32 -51 73 -87 182 -60 182 7 0 40 -11 74 -25 87 -34 165 -44
450 -54 248 -9 281 -12 330 -31 29 -11 105 -13 130 -4 8 4 22 19 30 35 51 98
-149 289 -389 372 -83 28 -103 31 -216 31 -120 0 -253 -20 -303 -46 -37 -19
-8 -18 89 3 148 32 302 30 414 -5 189 -61 390 -223 390 -314 0 -21 -6 -16 -36
29 -36 54 -80 96 -91 85 -3 -3 12 -25 34 -49 78 -85 91 -127 40 -127 -17 0
-33 14 -60 53 -43 63 -94 113 -104 104 -4 -4 7 -22 24 -40 52 -56 87 -107 72
-107 -8 1 -41 7 -74 15 -33 8 -83 15 -112 15 -46 0 -51 2 -46 19 11 42 -120
221 -161 221 -29 0 -64 -46 -81 -106 -9 -33 -23 -74 -31 -93 l-15 -34 -80 7
c-44 4 -110 16 -147 27 -37 11 -71 21 -77 22 -5 1 -36 22 -67 45 -108 80 -140
181 -98 311 32 99 51 123 38 48 -12 -69 -4 -118 21 -142 27 -24 53 -12 81 37
13 23 45 65 71 94 26 29 53 71 60 93 12 41 13 39 -46 218 -13 40 -12 44 20
112 19 39 37 71 40 71 4 0 3 -26 0 -57 -6 -46 -5 -56 5 -46 7 6 18 71 26 151
17 167 44 268 120 438 30 69 53 128 50 131 -3 3 -13 -8 -23 -26 -10 -17 -21
-31 -24 -31 -7 0 -30 117 -54 275 -23 155 -39 139 133 132 148 -7 263 -21 290
-36 11 -6 7 -11 -17 -22 -33 -15 -43 -35 -13 -26 9 3 49 17 87 32 134 51 276
46 449 -17 77 -28 109 -29 73 -3 -16 12 -13 14 33 24 54 12 322 15 333 5 3 -4
0 -16 -8 -28 -8 -11 -34 -71 -58 -132 -25 -61 -54 -128 -64 -148 l-19 -37 -34
78 c-35 81 -46 100 -55 91 -3 -2 16 -54 41 -114 41 -97 104 -297 104 -332 0
-7 -15 2 -33 21 -62 66 -159 55 -217 -24 l-26 -36 -39 19 c-30 16 -52 19 -99
16 -34 -3 -68 -8 -77 -12 -12 -5 -18 -1 -23 18 -15 61 -90 116 -158 116 -81
-1 -177 -103 -164 -174 13 -70 98 -135 175 -136 19 0 54 9 77 21 34 16 48 31
69 74 23 49 28 54 70 63 80 17 158 -15 170 -68 16 -73 140 -114 228 -76 13 6
17 4 17 -10 0 -12 -18 -29 -50 -47 -28 -16 -48 -33 -44 -38 3 -6 25 1 51 16
24 15 46 25 48 23 2 -2 6 -15 10 -31 7 -26 6 -27 -34 -27 -23 0 -41 -4 -41
-10 0 -5 20 -10 44 -10 35 0 47 -5 59 -24 21 -31 13 -37 -24 -19 -16 8 -37 13
-47 10 -12 -3 -5 -10 25 -23 49 -22 52 -37 24 -92 -33 -63 -99 -116 -191 -152
-113 -45 -409 -45 -594 -1 -88 21 -176 57 -176 71 0 13 151 110 257 165 51 26
90 52 87 56 -2 5 -17 4 -32 -2 -44 -17 -202 -109 -276 -162 l-69 -49 -41 30
c-22 17 -41 35 -41 42 0 16 166 91 267 122 74 22 99 38 60 38 -63 0 -452 -174
-452 -202 0 -14 22 -9 56 12 l33 21 48 -37 c50 -39 54 -50 22 -72 -17 -12 -27
-42 -14 -42 3 0 19 14 35 30 l29 30 58 -26 c86 -38 201 -63 354 -76 234 -20
407 11 509 92 33 26 44 30 78 24 42 -6 71 4 109 38 l21 20 20 -37 c12 -24 22
-34 26 -26 9 13 -19 61 -75 128 -22 26 -49 68 -61 92 -25 52 -50 151 -38 151
5 0 11 -8 14 -18 8 -24 76 -90 76 -73 0 7 -13 29 -30 49 -16 20 -38 58 -49 83
-17 38 -19 52 -10 78 6 17 14 31 18 31 3 0 21 -24 38 -52 45 -75 94 -141 100
-135 3 3 -24 53 -60 111 l-65 105 20 23 20 23 31 -40 c17 -22 102 -110 188
-195 173 -170 199 -208 207 -305 4 -58 -15 -180 -37 -235 -9 -23 -10 -22 -11
15 0 22 -9 59 -20 83 -27 60 -55 55 -90 -14 -41 -83 -57 -102 -92 -109 -18 -4
-39 -12 -45 -17 -18 -14 -16 -126 2 -213 8 -38 15 -71 15 -72 0 -4 -89 -63
-94 -63 -8 0 -109 205 -131 265 -24 65 -39 82 -32 34 3 -20 35 -97 71 -171 87
-182 112 -242 134 -329 11 -40 24 -75 31 -77 7 -2 9 7 4 30 -6 31 -52 174 -66
208 -5 11 10 26 51 52 172 110 276 261 318 465 20 94 15 202 -11 258 -12 24
-87 108 -195 215 -97 96 -185 190 -195 208 -24 39 -37 40 -63 5 -24 -32 -19
-41 -57 111 l-27 109 21 37 c11 20 41 88 66 151 26 63 55 129 66 148 12 21 17
37 11 43 -5 5 -77 10 -158 11 -113 1 -168 -3 -225 -17 -77 -18 -77 -18 -140 4
-90 31 -248 39 -333 16 -58 -16 -68 -16 -117 -2 -74 21 -213 36 -342 36 -90 0
-109 -3 -114 -16z m1389 -1110 c21 -21 25 -31 17 -45 -14 -26 -67 -52 -94 -45
l-22 6 26 54 c14 30 30 55 35 55 6 1 22 -11 38 -25z"/>
<path d="M2716 2606 c-18 -43 -48 -60 -93 -53 -24 4 -33 2 -30 -6 2 -7 22 -13
45 -15 36 -3 47 1 73 27 l30 31 26 -30 c28 -33 66 -39 99 -16 26 19 13 30 -19
15 -33 -15 -68 5 -87 50 -16 40 -26 39 -44 -3z"/>
<path d="M2165 2613 c-148 -12 -325 -52 -325 -73 0 -14 10 -13 61 5 78 28 231
47 381 49 82 0 148 4 148 7 0 17 -137 23 -265 12z"/>
<path d="M1380 1209 c-70 -10 -100 -21 -156 -59 -66 -46 -96 -106 -102 -201
-4 -65 -1 -88 18 -133 22 -56 75 -112 131 -140 40 -20 259 -50 259 -35 0 3
-41 9 -91 13 -150 11 -235 58 -284 156 -23 44 -31 152 -15 208 15 58 77 124
143 153 94 41 287 37 376 -7 51 -25 109 -92 126 -145 10 -28 15 -52 13 -54 -2
-2 -65 -12 -140 -22 l-137 -19 -21 28 c-39 53 -110 27 -110 -39 0 -31 24 -62
38 -49 4 4 -1 12 -11 17 -36 20 -10 89 33 89 10 0 29 -14 43 -31 l24 -31 137
20 c76 11 142 24 148 30 28 28 -42 153 -112 200 -67 45 -198 67 -310 51z"/>
<path d="M2093 1176 c-66 -21 -124 -60 -176 -115 -55 -58 -67 -86 -66 -144 l1
-42 9 49 c11 69 68 147 142 195 142 94 314 74 435 -50 75 -75 82 -104 82 -311
1 -133 3 -178 11 -165 7 12 9 79 7 180 -3 153 -4 165 -31 218 -33 69 -100 132
-173 166 -67 30 -179 39 -241 19z"/>
<path d="M3331 1151 l-31 -29 0 -375 c0 -337 2 -376 17 -388 15 -13 15 -12 5
8 -16 29 -17 706 -1 751 14 40 58 54 149 46 47 -4 71 -12 88 -27 22 -20 22
-25 24 -281 l3 -261 3 250 c1 138 0 260 -3 273 -10 40 -61 62 -146 62 -71 0
-79 -2 -108 -29z"/>
<path d="M2571 1156 c-9 -11 -11 -93 -9 -308 3 -288 3 -294 28 -341 22 -43 74
-106 111 -132 22 -16 71 -36 76 -31 2 2 -5 7 -16 11 -49 15 -120 85 -150 147
l-31 63 2 295 3 295 138 3 c106 2 137 0 138 -10 0 -7 0 -125 0 -263 -1 -266 4
-297 46 -303 12 -2 31 2 42 8 20 10 21 19 21 274 0 319 -11 296 142 296 86 0
108 -3 119 -17 9 -10 16 -56 20 -132 l5 -116 2 108 c2 104 -6 142 -32 159 -6
4 -61 8 -122 8 -94 0 -113 -3 -127 -18 -14 -16 -17 -54 -19 -282 -3 -238 -5
-264 -20 -274 -13 -8 -23 -8 -35 0 -16 10 -18 37 -21 279 -1 178 -6 273 -13
282 -17 19 -282 19 -298 -1z"/>
<path d="M2154 918 c-12 -5 -27 -21 -33 -34 -12 -28 -15 -252 -3 -271 4 -6 5
38 4 99 -2 61 -1 125 3 144 12 64 89 83 114 28 14 -31 15 -270 1 -279 -5 -3
-10 -11 -10 -16 0 -6 8 -3 18 7 14 15 17 37 17 152 l0 134 -28 24 c-30 26 -50
29 -83 12z"/>
<path d="M3251 874 c0 -11 3 -14 6 -6 3 7 2 16 -1 19 -3 4 -6 -2 -5 -13z"/>
<path d="M1488 853 c23 -2 59 -2 80 0 20 2 1 4 -43 4 -44 0 -61 -2 -37 -4z"/>
<path d="M1700 816 c0 -2 8 -10 18 -17 15 -13 16 -12 3 4 -13 16 -21 21 -21
13z"/>
<path d="M1776 727 c3 -10 9 -15 12 -12 3 3 0 11 -7 18 -10 9 -11 8 -5 -6z"/>
<path d="M1795 607 c0 -51 -3 -105 -8 -122 l-7 -30 14 30 c16 31 21 165 8 197
-4 10 -7 -24 -7 -75z"/>
<path d="M3242 603 c-1 -17 -5 -40 -8 -50 -5 -14 -4 -15 5 -7 7 7 11 28 8 50
-3 35 -4 35 -5 7z"/>
<path d="M1551 604 c0 -11 3 -14 6 -6 3 7 2 16 -1 19 -3 4 -6 -2 -5 -13z"/>
<path d="M3668 613 c17 -2 47 -2 65 0 17 2 3 4 -33 4 -36 0 -50 -2 -32 -4z"/>
<path d="M3785 610 c27 -12 43 -12 25 0 -8 5 -22 9 -30 9 -10 0 -8 -3 5 -9z"/>
<path d="M1323 585 c-100 -14 -148 -28 -68 -20 28 2 79 7 115 11 61 6 66 5 75
-17 10 -23 55 -46 55 -29 0 6 -9 10 -19 10 -12 0 -25 11 -33 27 -7 14 -17 27
-23 28 -5 1 -51 -3 -102 -10z"/>
<path d="M1850 579 c0 -13 5 -31 10 -39 7 -11 8 -5 4 20 -8 43 -14 51 -14 19z"/>
<path d="M2146 578 c7 -10 74 -11 74 0 0 4 -18 7 -39 7 -22 1 -37 -3 -35 -7z"/>
<path d="M1546 565 c-9 -26 -7 -32 5 -12 6 10 9 21 6 23 -2 3 -7 -2 -11 -11z"/>
<path d="M3848 479 c2 -56 6 -99 9 -96 8 9 4 180 -5 189 -4 4 -6 -38 -4 -93z"/>
<path d="M1145 560 l-30 -8 30 -1 c17 0 37 4 45 9 13 9 13 10 0 9 -8 -1 -28
-5 -45 -9z"/>
<path d="M2511 557 c-2 -30 -31 -80 -75 -126 -24 -25 -32 -39 -20 -33 41 21
109 129 101 160 -4 15 -5 15 -6 -1z"/>
<path d="M1126 520 c9 -33 33 -80 56 -109 34 -44 158 -116 158 -91 0 4 -12 11
-27 15 -31 7 -90 48 -113 78 -8 11 -30 45 -48 76 -18 31 -30 45 -26 31z"/>
<path d="M3205 490 c-3 -5 -1 -10 4 -10 6 0 11 5 11 10 0 6 -2 10 -4 10 -3 0
-8 -4 -11 -10z"/>
<path d="M1889 472 c5 -10 17 -25 26 -32 13 -11 13 -8 -2 18 -19 33 -41 46
-24 14z"/>
<path d="M3185 460 c-3 -5 -1 -10 4 -10 6 0 11 5 11 10 0 6 -2 10 -4 10 -3 0
-8 -4 -11 -10z"/>
<path d="M3156 421 c-4 -5 -27 -23 -53 -40 -49 -32 -51 -41 -5 -17 27 14 81
66 69 66 -3 0 -8 -4 -11 -9z"/>
<path d="M1742 408 c-7 -7 -12 -16 -12 -21 0 -5 7 -1 16 8 9 9 14 18 12 20 -2
3 -10 -1 -16 -7z"/>
<path d="M1954 401 c20 -22 26 -25 26 -13 0 4 -10 13 -22 21 -23 14 -23 14 -4
-8z"/>
<path d="M1990 375 c0 -7 61 -37 66 -33 2 3 -12 12 -31 21 -19 9 -35 15 -35
12z"/>
<path d="M1694 354 c-18 -14 -18 -15 4 -4 12 6 22 13 22 15 0 8 -5 6 -26 -11z"/>
<path d="M2350 360 c-8 -5 -10 -10 -5 -10 6 0 17 5 25 10 8 5 11 10 5 10 -5 0
-17 -5 -25 -10z"/>
<path d="M3830 355 c-10 -12 -53 -15 -254 -18 l-241 -2 241 -3 c194 -2 244 1
260 12 10 8 16 17 13 20 -3 4 -12 0 -19 -9z"/>
<path d="M2285 334 c-40 -14 -40 -14 -5 -9 19 3 39 10 44 15 12 12 12 12 -39
-6z"/>
<path d="M3010 334 c-42 -15 -142 -18 -189 -4 -25 7 -32 7 -24 -1 27 -27 201
-23 239 6 22 17 20 17 -26 -1z"/>
<path d="M2077 330 c7 -8 44 -14 90 -16 l78 -3 -65 8 c-36 4 -76 11 -90 15
-20 7 -23 6 -13 -4z"/>
<path d="M1605 315 c-33 -11 -35 -14 -14 -14 14 -1 34 6 45 14 22 17 21 17
-31 0z"/>
<path d="M1350 312 c0 -10 100 -23 169 -21 29 1 14 5 -41 10 -48 4 -96 10
-107 14 -12 3 -21 2 -21 -3z"/>
</g>
</svg>
